<svg xmlns="http://www.w3.org/2000/svg" width="20" height="20" viewBox="0 0 38 57" aria-hidden="true">
  <path fill="#1abcfe" d="M19 28.5c0-5.8 4.7-10.5 10.5-10.5S40 22.7 40 28.5 35.3 39 29.5 39 19 34.3 19 28.5z"/>
  <path fill="#0acf83" d="M0 47.5C0 41.7 4.7 37 10.5 37H19v10.5C19 53.3 14.3 58 8.5 58 2.7 58 0 53.3 0 47.5z"/>
  <path fill="#ff7262" d="M19 0v19h10.5c5.8 0 10.5-4.7 10.5-10.5S35.3 0 29.5 0H19z"/>
  <path fill="#f24e1e" d="M0 9.5C0 15.3 4.7 20 10.5 20H19V0H10.5C4.7 0 0 4.7 0 9.5z"/>
  <path fill="#a259ff" d="M0 28.5C0 34.3 4.7 39 10.5 39H19V18H10.5C4.7 18 0 22.7 0 28.5z"/>
</svg>
