<svg width="512" height="512" viewBox="0 0 512 512" fill="none" xmlns="http://www.w3.org/2000/svg">
<path d="M414.46 20.23C364.34 66.69 325.46 117.37 296.33 171.71L459.15 207.06C471 131.35 453.93 70.18 414.46 20.23Z" fill="#FFAB31"/>
<path d="M90.78 20.23C140.9 66.69 179.78 117.37 208.91 171.71L46.09 207.06C34.21 131.35 51.31 70.18 90.78 20.23Z" fill="#FFAB31"/>
<path d="M408.93 58.8999C376.54 90.2099 351.33 124.27 332.34 160.72L436.39 183.31C444.46 132.71 433.89 91.9999 408.93 58.8999Z" fill="#DD730F"/>
<path d="M96.67 58.8701C125.718 87.2489 150.027 120.103 168.67 156.18L71.52 177.27C63.77 129 73.48 90.2901 96.67 58.8701Z" fill="#DD730F"/>
<path d="M500.18 325.82C500.189 332.077 499.811 338.329 499.05 344.54C487.1 442.02 381.05 491.77 252.05 491.77C124.62 491.77 19.63 443.24 5.53003 348.12C4.45229 340.736 3.9142 333.283 3.92003 325.82C3.92003 235.74 78.67 137.5 181.17 105.1C189.705 102.398 198.385 100.181 207.17 98.4601C217.018 96.5125 226.983 95.2065 237 94.5501C241.973 94.2301 246.973 94.0667 252 94.0601H254.5C258.33 94.0601 262.13 94.2501 265.91 94.4701C276.321 95.1082 286.678 96.4445 296.91 98.4701C305.696 100.193 314.376 102.413 322.91 105.12C425.44 137.5 500.18 235.74 500.18 325.82Z" fill="#FFAB31"/>
<path d="M270.58 166.51C270.544 197.827 262.015 228.548 245.9 255.4C210.66 314.66 141.3 355 61.49 355C42.6306 355.025 23.8396 352.731 5.53998 348.17C4.46224 340.786 3.92414 333.333 3.92998 325.87C3.92998 220.05 107 103 237 94.5501C241.993 94.2301 247.01 94.0667 252.05 94.0601H254.55C265.108 116.754 270.579 141.481 270.58 166.51Z" fill="#FFAB31"/>
<path d="M500.18 325.82C500.188 332.077 499.811 338.329 499.05 344.54C476.799 351.49 453.621 355.017 430.31 355C350.49 355 281.13 314.71 245.9 255.45C231.404 231.391 223.015 204.151 221.463 176.106C219.912 148.06 225.246 120.061 237 94.5501C241.993 94.2301 247.01 94.0667 252.05 94.0601H254.55C390.45 95.5401 500.18 216.67 500.18 325.82Z" fill="#FFAB31"/>
<path d="M229.068 324.176C243.781 321.366 258.88 321.278 273.617 323.912L275.043 324.176L275.056 324.178L275.07 324.181C275.802 324.327 276.485 324.655 277.057 325.131L277.294 325.345L277.517 325.574C277.944 326.048 278.265 326.607 278.458 327.215L278.544 327.522L278.609 327.835C278.731 328.569 278.669 329.324 278.426 330.031C278.149 330.835 277.648 331.542 276.985 332.072L276.986 332.073L254.856 349.804L254.849 349.809L254.842 349.814C254.049 350.443 253.066 350.784 252.055 350.784C251.043 350.784 250.061 350.443 249.268 349.814L249.261 349.809L249.254 349.804L227.124 332.073L227.125 332.072C226.461 331.542 225.96 330.835 225.684 330.031C225.406 329.223 225.365 328.353 225.566 327.522L225.652 327.215C225.877 326.506 226.277 325.863 226.816 325.345L227.054 325.131C227.626 324.655 228.309 324.327 229.041 324.181L229.054 324.178L229.068 324.176Z" fill="#551E00" stroke="#551E00" stroke-width="6"/>
<path d="M307.634 364.349C308.788 364.217 309.98 364.417 311.03 364.935C312.013 365.42 312.91 366.206 313.466 367.27L313.572 367.487L313.671 367.714C314.135 368.865 314.149 370.161 313.643 371.349L313.629 371.381L313.615 371.413C311.365 376.371 308.057 380.894 303.871 384.784L303.859 384.794L303.848 384.805C301.546 386.899 298.911 388.704 296.022 390.179L296.01 390.185L295.998 390.191C293.027 391.674 289.804 392.774 286.431 393.469L286.432 393.47C279.742 394.882 272.634 394.713 265.899 392.993L265.886 392.99C259.306 391.278 253.311 388.091 248.615 383.742L248.569 383.699L248.525 383.655C247.657 382.78 247.057 381.568 247.051 380.192C247.045 378.803 247.647 377.56 248.583 376.677C249.5 375.812 250.667 375.344 251.819 375.216L252.035 375.195C253.049 375.119 254.083 375.296 255.017 375.718L255.215 375.812L255.794 376.1L255.886 376.212C259.86 378.356 264.274 379.903 268.902 380.757L268.903 380.757C273.487 381.542 278.171 381.45 282.574 380.499L282.577 380.498C286.972 379.552 290.927 377.775 294.142 375.356C297.832 372.463 301.212 369.327 304.249 365.981L304.323 365.899L304.403 365.823C305.317 364.954 306.483 364.482 307.634 364.349Z" fill="#551E00" stroke="#551E00" stroke-width="6"/>
<path d="M252.841 375.071C254.115 375.277 255.371 375.894 256.285 376.929L256.296 376.94L256.305 376.951C256.993 377.744 257.462 378.767 257.525 379.906L257.532 380.136L257.528 380.368C257.48 381.518 257.013 382.569 256.277 383.381L256.276 383.379C252.848 387.285 248.549 390.562 243.625 393.061L243.588 393.08C240.794 394.448 237.752 395.429 234.577 395.997L234.543 396.003C231.253 396.553 227.854 396.624 224.494 396.217L224.489 396.216C221.196 395.812 217.971 394.989 214.932 393.774L214.913 393.766C211.953 392.559 209.194 390.996 206.736 389.122L206.736 389.121C202.04 385.562 198.449 381.038 196.411 375.962L196.38 375.885L196.353 375.806C195.927 374.545 196.042 373.178 196.688 372.003L196.81 371.792C197.447 370.76 198.414 370.052 199.441 369.665C200.536 369.252 201.728 369.184 202.841 369.423C203.51 369.567 204.167 369.828 204.765 370.203L205.307 370.228L206.153 371.261C208.621 374.277 211.7 376.98 215.272 379.241C218.425 381.232 222.16 382.555 226.101 383.052C229.956 383.477 233.794 382.987 237.146 381.681C241.285 379.989 245.219 378.012 248.907 375.773L248.957 375.743L249.007 375.715C250.194 375.056 251.566 374.865 252.841 375.071Z" fill="#551E00" stroke="#551E00" stroke-width="6"/>
<path d="M111.491 212.532L99.0408 210.333C91.5444 209.009 84.394 214.012 83.0697 221.508L83.068 221.518C81.7438 229.015 86.7473 236.165 94.2436 237.489L106.694 239.689C114.19 241.013 121.341 236.009 122.665 228.513L122.667 228.503C123.991 221.007 118.987 213.856 111.491 212.532Z" fill="#551E00"/>
<path d="M104.71 256.68H403.88V284.25H104.71V256.68Z" fill="#551E00"/>
<path d="M110.441 212.348L222.947 232.222C226.973 232.933 230.551 235.214 232.895 238.564C235.239 241.913 236.156 246.056 235.445 250.082L231.187 274.185C227.843 293.129 217.112 309.969 201.353 321.001C185.594 332.033 166.098 336.353 147.154 333.012C128.209 329.665 111.37 318.93 100.34 303.167C89.3102 287.405 84.9939 267.906 88.3405 248.961L92.6 224.849C93.3112 220.823 95.5924 217.245 98.9418 214.901C102.291 212.557 106.435 211.64 110.46 212.351L110.441 212.348Z" fill="#551E00"/>
<path d="M402.63 210.069L390.179 212.269C382.683 213.593 377.68 220.743 379.004 228.24L379.006 228.25C380.33 235.746 387.48 240.749 394.977 239.425L407.427 237.226C414.923 235.902 419.927 228.751 418.603 221.255L418.601 221.245C417.277 213.749 410.126 208.745 402.63 210.069Z" fill="#551E00"/>
<path d="M278.745 231.966L391.252 212.092C395.277 211.381 399.421 212.298 402.77 214.642C406.12 216.985 408.401 220.564 409.112 224.589L413.37 248.692C416.716 267.637 412.4 287.136 401.37 302.898C390.341 318.661 373.501 329.396 354.556 332.743C335.611 336.09 316.112 331.773 300.35 320.744C284.587 309.714 273.852 292.874 270.505 273.929L266.247 249.826C265.895 247.833 265.939 245.79 266.377 243.814C266.814 241.837 267.637 239.966 268.797 238.308C269.958 236.649 271.434 235.236 273.14 234.148C274.847 233.06 276.752 232.318 278.745 231.966Z" fill="#551E00"/>
</svg>
